<svg width="450" height="450" viewBox="0 0 450 450" fill="none" xmlns="http://www.w3.org/2000/svg">
<g clip-path="url(#clip0_16_2)">
<rect width="450" height="450" rx="155" fill="#15171B"/>
<path d="M119.441 340.95C112.628 340.95 105.449 340.22 97.9059 338.76C90.6059 337.543 84.4009 335.475 79.2909 332.555C74.1809 329.635 71.6259 325.863 71.6259 321.24C71.6259 320.753 71.9909 320.145 72.7209 319.415C73.2075 318.442 73.6942 318.32 74.1809 319.05C77.3442 322.457 81.6025 325.255 86.9559 327.445C92.5525 329.392 98.3925 330.73 104.476 331.46C110.803 332.433 116.643 332.92 121.996 332.92C133.189 332.92 143.409 331.46 152.656 328.54C162.146 325.377 169.689 320.753 175.286 314.67C180.883 308.343 183.681 300.557 183.681 291.31C183.681 283.28 181.126 275.98 176.016 269.41C170.906 262.597 164.579 255.905 157.036 249.335C149.736 242.522 142.314 235.465 134.771 228.165C127.471 220.865 121.266 212.835 116.156 204.075C111.046 195.072 108.491 184.73 108.491 173.05C108.491 164.047 110.924 155.652 115.791 147.865C120.901 139.835 127.593 132.778 135.866 126.695C144.383 120.612 153.629 115.867 163.606 112.46C173.583 109.053 183.559 107.35 193.536 107.35C205.216 107.35 213.976 109.54 219.816 113.92C225.656 118.3 228.576 126.33 228.576 138.01C228.576 145.067 227.116 151.758 224.196 158.085C221.276 164.168 217.383 167.21 212.516 167.21C211.543 167.21 210.569 166.845 209.596 166.115C208.623 165.142 208.258 163.803 208.501 162.1C208.988 157.233 209.474 152.732 209.961 148.595C210.448 144.458 210.691 140.808 210.691 137.645C210.691 129.858 209.353 124.018 206.676 120.125C204.243 115.988 199.498 113.92 192.441 113.92C181.491 113.92 170.906 116.475 160.686 121.585C150.709 126.452 142.436 133.265 135.866 142.025C129.296 150.542 126.011 160.153 126.011 170.86C126.011 179.133 128.566 187.042 133.676 194.585C138.786 202.128 144.991 209.428 152.291 216.485C159.834 223.542 167.378 230.72 174.921 238.02C182.464 245.077 188.791 252.377 193.901 259.92C199.011 267.463 201.566 275.493 201.566 284.01C201.566 297.15 197.429 307.978 189.156 316.495C180.883 324.768 170.419 330.852 157.766 334.745C145.356 338.882 132.581 340.95 119.441 340.95ZM251.294 335.11C250.564 335.11 248.739 334.988 245.819 334.745C243.143 334.745 240.588 334.502 238.154 334.015C235.721 333.528 234.504 332.677 234.504 331.46C234.504 330.243 235.843 329.392 238.519 328.905C241.196 328.175 244.359 327.688 248.009 327.445C251.903 326.958 255.431 326.715 258.594 326.715C261.758 326.472 263.826 326.35 264.799 326.35C265.529 326.35 267.719 326.228 271.369 325.985C275.263 325.498 277.696 324.647 278.669 323.43C279.399 320.267 280.738 314.305 282.684 305.545C284.631 296.542 286.821 285.957 289.254 273.79C291.688 261.38 294.243 248.605 296.919 235.465C299.596 222.082 302.151 209.307 304.584 197.14C307.018 184.973 309.086 174.632 310.789 166.115C312.493 157.355 313.588 151.515 314.074 148.595C315.534 137.158 316.508 129.858 316.994 126.695C317.481 123.288 317.481 120.733 316.994 119.03C307.991 119.03 297.649 119.76 285.969 121.22H284.144C282.441 121.22 280.494 120.977 278.304 120.49C276.114 120.003 275.019 119.152 275.019 117.935C275.019 116.962 275.749 116.353 277.209 116.11C278.669 115.623 279.521 115.258 279.764 115.015C283.901 113.555 288.524 112.46 293.634 111.73C298.988 111 303.854 110.392 308.234 109.905C312.614 109.418 315.534 109.053 316.994 108.81C319.184 107.35 322.348 106.012 326.484 104.795C330.621 103.578 333.784 102.97 335.974 102.97C338.164 102.97 339.381 103.822 339.624 105.525C339.868 106.985 339.989 107.958 339.989 108.445H349.479C351.669 108.445 355.319 108.567 360.429 108.81C365.539 109.053 370.406 109.783 375.029 111C379.896 111.973 382.816 113.555 383.789 115.745C384.276 116.718 384.519 117.57 384.519 118.3C384.519 119.03 383.911 119.395 382.694 119.395C380.748 119.395 378.679 119.273 376.489 119.03C374.299 118.787 372.109 118.665 369.919 118.665C366.756 118.665 363.349 118.665 359.699 118.665C356.293 118.422 352.886 118.3 349.479 118.3C347.776 118.3 345.221 118.543 341.814 119.03C338.651 119.273 336.826 120.125 336.339 121.585C332.933 134.968 329.404 150.177 325.754 167.21C322.104 184 318.576 201.033 315.169 218.31C311.763 235.587 308.599 251.768 305.679 266.855C303.003 281.942 300.813 294.595 299.109 304.815C297.649 314.792 296.919 320.997 296.919 323.43C296.919 324.16 298.501 324.647 301.664 324.89C304.828 325.133 306.653 325.255 307.139 325.255C312.006 325.742 317.603 326.228 323.929 326.715C330.256 327.202 335.731 328.175 340.354 329.635C340.354 329.635 340.598 329.757 341.084 330C341.814 330.243 342.179 330.608 342.179 331.095C342.179 332.068 340.963 332.798 338.529 333.285C336.339 333.772 333.906 334.015 331.229 334.015C328.796 334.258 327.214 334.38 326.484 334.38C321.131 334.38 315.778 334.258 310.424 334.015C305.314 334.015 300.204 334.015 295.094 334.015C287.794 334.015 280.494 334.137 273.194 334.38C265.894 334.867 258.594 335.11 251.294 335.11Z" fill="white"/>
</g>
<defs>
<clipPath id="clip0_16_2">
<rect width="450" height="450" rx="155" fill="white"/>
</clipPath>
</defs>
</svg>
