<?xml version="1.0" encoding="UTF-8" standalone="no"?>
<!-- Created with Inkscape (http://www.inkscape.org/) -->

<svg
   version="1.1"
   id="svg1763"
   width="512"
   height="512"
   viewBox="0 0 512 512"
   sodipodi:docname="adenoids.svg"
   inkscape:version="1.2.1 (9c6d41e410, 2022-07-14)"
   xmlns:inkscape="http://www.inkscape.org/namespaces/inkscape"
   xmlns:sodipodi="http://sodipodi.sourceforge.net/DTD/sodipodi-0.dtd"
   xmlns="http://www.w3.org/2000/svg"
   xmlns:svg="http://www.w3.org/2000/svg">
  <defs
     id="defs1767" />
  <sodipodi:namedview
     id="namedview1765"
     pagecolor="#ffffff"
     bordercolor="#000000"
     borderopacity="0.25"
     inkscape:showpageshadow="2"
     inkscape:pageopacity="0.0"
     inkscape:pagecheckerboard="0"
     inkscape:deskcolor="#d1d1d1"
     showgrid="false"
     inkscape:zoom="1.1449053"
     inkscape:cx="155.90809"
     inkscape:cy="261.15697"
     inkscape:window-width="1920"
     inkscape:window-height="1009"
     inkscape:window-x="-8"
     inkscape:window-y="-8"
     inkscape:window-maximized="1"
     inkscape:current-layer="g1769" />
  <g
     inkscape:groupmode="layer"
     inkscape:label="Image"
     id="g1769">
    <path
       id="path2255"
       style="fill:#ffffff;fill-opacity:0.732057;stroke:#000000;stroke-width:1.04471;stroke-opacity:0"
       d="M 256.7207 2.6425781 A 254.58386 254.58386 0 0 0 2.1367188 257.22656 A 254.58386 254.58386 0 0 0 256.7207 511.81055 A 254.58386 254.58386 0 0 0 511.30469 257.22656 A 254.58386 254.58386 0 0 0 256.7207 2.6425781 z M 263.08984 85.207031 C 268.69866 85.282666 274.22873 87.791166 278.83789 92.71875 C 283.36792 97.561715 285.08835 101.9821 285.08203 108.76367 C 285.07803 113.0425 282.15597 120.37538 278.80469 124.51758 C 277.58326 126.02724 277.18215 127.80391 277.41211 130.69531 L 277.73633 134.75391 L 284.94141 135.93555 C 300.6253 138.50713 322.70705 147.75688 335.66211 157.18359 L 341.55664 161.47266 L 344.82812 158.29688 C 346.9165 156.26869 348.09961 154.23193 348.09961 152.66406 C 348.09961 151.31345 348.97184 147.87841 350.03711 145.03125 C 354.64264 132.72186 368.59871 127.03671 380.54883 132.60156 C 390.14633 137.07092 395.49952 147.44188 393.29492 157.29297 C 391.15438 166.85793 385.1259 172.72387 374.89062 175.19922 C 369.95426 176.39306 367.5566 177.55547 365.26562 179.86719 C 363.58772 181.56027 362.59904 183.1826 363.06836 183.47266 C 364.64032 184.44418 372.28965 196.68387 376.25781 204.57617 C 381.32832 214.66088 386.21956 229.42021 387.74414 239.23633 L 388.94922 246.99414 L 393.26172 246.99414 C 396.42446 246.99414 398.43465 246.35054 400.81055 244.57812 C 405.98754 240.71602 410.23409 239.2378 416.27539 239.19336 C 428.86262 239.10076 438.40062 248.85665 438.35156 261.77344 C 438.31806 270.60703 433.90512 277.84617 426.16016 281.76953 C 418.29381 285.7544 410.51942 284.98299 401.94922 279.36914 C 398.26224 276.95401 396.00593 276.14453 392.96289 276.14453 L 388.90039 276.14453 L 387.70508 283.43164 C 385.11396 299.23007 375.88958 321.25251 366.39648 334.29883 L 362.06055 340.25781 L 365.18945 343.35352 C 367.37657 345.51772 369.81197 346.76323 373.28516 347.49609 C 383.66463 349.68625 390.16054 355.11972 392.72461 363.75391 C 394.52818 369.8272 394.52623 370.52911 392.67383 376.82617 C 389.97233 386.00988 380.85947 392.74805 371.13867 392.74805 C 361.79276 392.74805 353.31398 386.8656 350.03711 378.10742 C 348.97185 375.26022 348.09961 371.83831 348.09961 370.50391 C 348.09961 367.85118 341.14517 360.03427 340.17773 361.59961 C 339.19718 363.18621 327.0705 370.79829 319.37891 374.6543 C 308.75058 379.98253 299.34088 383.23261 287.54688 385.65234 L 277.30469 387.75391 L 277.30469 392.12305 C 277.30469 395.2909 277.97527 397.46118 279.74609 400.02539 C 284.05237 406.26091 285.35919 410.54085 284.85938 416.76758 C 284.32377 423.44003 282.79413 426.7355 278.0293 431.48438 C 272.31422 437.18033 263.14494 439.23635 255.01172 436.64648 C 250.25789 435.1327 242.25286 426.97805 240.99609 422.36914 C 238.78854 414.27339 240.07484 407.60389 245.30859 400.02539 C 247.07941 397.46118 247.75 395.2909 247.75 392.12305 L 247.75 387.75391 L 237.50781 385.65234 C 231.87416 384.4965 224.09181 382.4001 220.21289 380.99219 C 210.7342 377.55176 195.94528 369.91412 189.32031 365.03711 L 183.91797 361.05859 L 180.4375 364.58203 C 178.24319 366.80285 176.95703 368.99672 176.95703 370.51758 C 176.95703 371.84448 176.08479 375.26022 175.01953 378.10742 C 171.74266 386.8656 163.26391 392.74805 153.91797 392.74805 C 144.19719 392.74805 135.08234 386.00988 132.38086 376.82617 C 130.52851 370.52911 130.52635 369.8272 132.33008 363.75391 C 134.89415 355.11972 141.39197 349.68625 151.77148 347.49609 C 155.24114 346.76397 157.68122 345.51655 159.86133 343.35938 L 162.98242 340.27148 L 158.79688 334.58789 C 149.44858 321.88923 139.93514 299.19614 137.34961 283.43164 L 136.1543 276.14453 L 132.0918 276.14453 C 129.04876 276.14453 126.79443 276.95401 123.10742 279.36914 C 114.53725 284.98299 106.76086 285.7544 98.894531 281.76953 C 91.149573 277.84617 86.736694 270.60703 86.703125 261.77344 C 86.628175 242.02583 107.81506 232.32187 124.24414 244.57812 C 126.62002 246.35054 128.6322 246.99414 131.79492 246.99414 L 136.10547 246.99414 L 137.31055 239.23633 C 139.75486 223.49856 149.27011 200.5526 158.61719 187.85547 L 162.62109 182.41602 L 159.67969 179.60156 C 157.61381 177.62505 154.78249 176.3149 150.16602 175.19922 C 139.93124 172.72572 133.9005 166.85874 131.75977 157.29297 C 130.83071 153.14145 130.90254 151.47885 132.20117 147.01172 C 137.07414 130.24931 157.47732 124.97975 170.14062 137.21289 C 173.38964 140.35153 176.95703 148.50099 176.95703 152.78711 C 176.95703 154.50909 178.03467 156.38422 180.20117 158.42773 L 183.44531 161.48633 L 189.08398 157.33594 C 201.71096 148.04048 224.45401 138.5031 240.11328 135.93555 L 247.32031 134.75391 L 247.64258 130.69531 C 247.87255 127.80391 247.47336 126.02724 246.25195 124.51758 C 242.90064 120.37538 239.97858 113.0425 239.97461 108.76367 C 239.96761 101.38344 241.64264 97.377121 246.86719 92.287109 C 251.79303 87.488101 257.48103 85.131396 263.08984 85.207031 z M 106.10742 173.14844 C 109.95631 173.21431 113.8072 173.92039 116.30469 175.24609 C 131.15966 183.13133 134.20191 201.62981 122.55859 213.26367 C 116.46081 219.3565 108.33996 221.73799 100.31836 219.78516 C 93.81663 218.20233 87.693754 213.16971 84.226562 206.55859 C 81.833547 201.99567 81.860545 191.39362 84.277344 186.4668 C 86.467054 182.0027 91.30963 177.19102 95.917969 174.89844 C 98.4111 173.65815 102.25853 173.08256 106.10742 173.14844 z M 292.44531 183.99023 C 285.90032 183.99023 282.81851 191.20134 287.4043 195.78711 C 290.27419 198.65701 294.13836 198.76302 297.02539 196.05078 C 301.62671 191.72809 298.68837 183.99023 292.44531 183.99023 z M 228.55859 188.86914 C 209.90518 189.79772 192.85222 204.5983 190.19336 223.78125 C 186.21344 252.49545 212.5352 276.31756 240.26172 269.0957 C 247.67547 267.16467 252.58692 264.49997 257.92188 259.50977 C 266.88749 251.12346 270.99023 241.66595 270.99023 229.39648 C 270.99023 209.29874 256.84004 192.81203 236.61523 189.34766 C 233.92247 188.88641 231.22337 188.73649 228.55859 188.86914 z M 321.32031 236.07617 C 317.0045 236.06964 312.69238 236.78794 309.97266 238.23242 C 304.80095 240.97931 298.90914 247.58728 296.87109 252.92383 C 294.69685 258.61706 295.25898 268.38943 298.08008 273.91406 C 300.71543 279.07494 307.87859 285.24947 313.2207 286.96484 C 318.68153 288.71833 326.78473 288.21128 332.30469 285.76953 C 345.63309 279.87375 351.42376 263.72352 344.95312 250.49805 C 342.1831 244.8363 338.90147 241.56263 332.69336 238.26758 C 329.95626 236.81481 325.63613 236.0827 321.32031 236.07617 z M 185.99023 280.81055 C 184.07661 280.69937 182.11681 281.32656 180.7168 282.72656 C 177.91676 285.52661 178.20989 290.55988 181.31445 293.00195 C 184.6012 295.58729 187.814 295.46528 190.63477 292.64453 C 193.45552 289.82379 193.5795 286.61097 190.99414 283.32422 C 189.7731 281.77192 187.90386 280.92172 185.99023 280.81055 z M 239.60742 291.1875 C 234.76223 291.3826 229.91316 293.10495 225.81445 296.61328 C 218.72342 302.68296 216.06628 311.56773 218.67578 320.48438 C 222.81191 334.61769 238.43853 341.38749 251.35352 334.64062 C 260.93328 329.63611 265.79395 319.54788 263.51953 309.38477 C 260.91102 297.72868 250.26685 290.75827 239.60742 291.1875 z M 413.45312 297.32031 C 420.79982 297.32031 422.54444 297.6503 426.67773 299.82422 C 432.36926 302.81765 437.84139 308.62506 440.58594 314.58398 C 442.10869 317.89018 442.58371 320.73111 442.56641 326.45312 C 442.54621 333.18296 442.20754 334.60049 439.36328 339.89648 C 437.61462 343.15247 434.59537 347.07436 432.65234 348.61328 C 424.96182 354.70429 414.5765 357.16141 406.33398 354.83984 C 384.33761 348.64434 376.73147 323.0669 391.89453 306.2832 C 393.85946 304.10828 397.60975 301.20153 400.22852 299.82422 C 404.36182 297.6503 406.1064 297.32031 413.45312 297.32031 z M 286.89844 315.63867 C 280.10826 315.63867 277.16368 323.76635 282.38281 328.09961 C 285.10368 330.35863 288.26865 330.16118 291.3125 327.54297 C 296.46834 323.10809 293.69859 315.63867 286.89844 315.63867 z M 320.83008 405.92383 C 324.01191 405.92383 329.41093 408.01508 332.125 410.29883 C 343.06291 419.50247 339.32242 437.83029 325.73633 441.60352 C 321.21734 442.85856 319.27866 442.78926 314.8457 441.20898 C 310.39473 439.62224 305.98642 435.60647 304.25781 431.56641 C 302.60816 427.71093 302.59569 420.8334 304.23242 416.91602 C 306.56536 411.33257 314.73417 405.92383 320.83008 405.92383 z " />
  </g>
</svg>
