<?xml version="1.0" encoding="UTF-8" standalone="no"?>
<!-- Created with Inkscape (http://www.inkscape.org/) -->

<svg
   version="1.1"
   id="svg375"
   width="511.99997"
   height="459.08926"
   viewBox="0 0 511.99997 459.08926"
   sodipodi:docname="alert.png"
   xmlns:inkscape="http://www.inkscape.org/namespaces/inkscape"
   xmlns:sodipodi="http://sodipodi.sourceforge.net/DTD/sodipodi-0.dtd"
   xmlns="http://www.w3.org/2000/svg"
   xmlns:svg="http://www.w3.org/2000/svg">
  <defs
     id="defs379" />
  <sodipodi:namedview
     id="namedview377"
     pagecolor="#ffffff"
     bordercolor="#000000"
     borderopacity="0.25"
     inkscape:showpageshadow="2"
     inkscape:pageopacity="0.0"
     inkscape:pagecheckerboard="0"
     inkscape:deskcolor="#d1d1d1"
     showgrid="false" />
  <g
     inkscape:groupmode="layer"
     inkscape:label="Image"
     id="g381"
     transform="translate(-0.87343127,-25.680151)">
    <path
       style="fill:#ffffff;fill-opacity:0.73"
       d="M 52.420671,484.02474 C 28.209591,480.45821 9.0813913,462.89946 2.8454313,438.51709 c -1.0846,-4.24075 -1.97200003,-10.49148 -1.97200003,-13.89052 0,-7.10646 2.88519003,-19.3576 6.04515003,-25.66908 1.1926,-2.382 46.7828297,-81.70564 101.3116087,-176.27475 94.27258,-163.496664 99.48713,-172.29389 106.14324,-179.069409 7.79433,-7.934164 13.40862,-11.420533 24.5,-15.214049 10.68554,-3.654711 25.11199,-3.622792 36.5,0.08076 9.93646,3.231485 18.83488,8.983754 25.71808,16.625124 3.99768,4.43801 29.38694,47.64212 104.42254,177.692554 54.52734,94.50587 100.11757,173.77777 101.31161,176.15977 3.1611,6.30611 6.04777,18.55827 6.04777,25.66908 0,20.83113 -13.42361,43.23877 -31.5922,52.73594 -15.14849,7.9185 5.30934,7.23366 -220.9078,7.39503 -111.44382,0.0795 -204.668609,-0.24901 -207.952759,-0.7328 z M 464.37343,452.32722 c 6.31929,-2.90605 11.92448,-8.28566 15.31707,-14.70065 2.22253,-4.20255 2.64405,-6.27592 2.6429,-13 -10e-4,-7.03313 -0.38175,-8.72515 -3.14877,-14 -1.73107,-3.3 -46.79423,-81.6 -100.14036,-174 C 319.13715,132.86237 280.58348,67.086101 278.21238,64.597691 c -5.88684,-6.178086 -12.31578,-8.841967 -21.33895,-8.841967 -9.02262,0 -15.45062,2.663281 -21.34066,8.841967 -2.37534,2.491745 -40.84557,68.125629 -100.83193,172.028879 -53.345199,92.4 -98.407589,170.7 -100.138649,174 -2.7661,5.27318 -3.14778,6.96909 -3.15075,14 -0.003,6.4412 0.45231,8.87683 2.33533,12.5 4.50851,8.67497 12.11427,14.84313 20.86113,16.91806 2.15664,0.5116 89.432879,0.82675 204.265529,0.7376 l 200.5,-0.15566 z M 249.9206,393.82165 c -7.80156,-2.48709 -14.08539,-12.90983 -12.74885,-21.14598 1.42124,-8.75807 6.51148,-14.43607 14.96979,-16.69832 14.74933,-3.94485 27.88271,9.82396 23.68191,24.82772 -3.01567,10.77092 -14.63366,16.60914 -25.90285,13.01658 z m -8.04717,-143.69508 v -75 h 15 15 v 75 75 h -15 -15 z"
       id="path556" />
  </g>
</svg>
