<?xml version="1.0" encoding="UTF-8" standalone="no"?>
<!-- Created with Inkscape (http://www.inkscape.org/) -->

<svg
   version="1.1"
   id="svg3023"
   width="512"
   height="512"
   viewBox="0 0 512 512"
   sodipodi:docname="theme.svg"
   inkscape:version="1.2.1 (9c6d41e410, 2022-07-14)"
   xmlns:inkscape="http://www.inkscape.org/namespaces/inkscape"
   xmlns:sodipodi="http://sodipodi.sourceforge.net/DTD/sodipodi-0.dtd"
   xmlns="http://www.w3.org/2000/svg"
   xmlns:svg="http://www.w3.org/2000/svg">
  <defs
     id="defs3027" />
  <sodipodi:namedview
     id="namedview3025"
     pagecolor="#ffffff"
     bordercolor="#000000"
     borderopacity="0.25"
     inkscape:showpageshadow="2"
     inkscape:pageopacity="0.0"
     inkscape:pagecheckerboard="0"
     inkscape:deskcolor="#d1d1d1"
     showgrid="false"
     inkscape:zoom="1.1449053"
     inkscape:cx="252.42262"
     inkscape:cy="253.29606"
     inkscape:window-width="1920"
     inkscape:window-height="1009"
     inkscape:window-x="-8"
     inkscape:window-y="-8"
     inkscape:window-maximized="1"
     inkscape:current-layer="g3608" />
  <g
     inkscape:groupmode="layer"
     inkscape:label="Image"
     id="g3029">
    <g
       id="g3608"
       transform="translate(36.684256,44.545168)"
       inkscape:groupmode="layer">
      <g
         id="g3619"
         transform="translate(7.4113396,-2)" />
      <path
         id="path3740"
         style="fill:#000000;fill-opacity:0.73;stroke:#000000;stroke-width:1.18113;stroke-opacity:0"
         d="M 221.47785 -41.984621 A 253.13019 253.13019 0 0 0 -31.653006 211.14624 A 253.13019 253.13019 0 0 0 221.47785 464.2771 A 253.13019 253.13019 0 0 0 474.60676 211.14624 A 253.13019 253.13019 0 0 0 221.47785 -41.984621 z M 222.9427 25.704832 C 224.22585 25.690653 225.51328 25.831272 226.77473 26.124754 C 228.03618 26.418236 229.27274 26.864746 230.45246 27.466551 C 231.6322 28.068354 232.75626 28.825292 233.79426 29.736082 C 234.83227 30.646872 235.78417 31.712908 236.62043 32.933348 C 237.18711 33.760361 237.61245 34.384187 237.92707 35.38452 C 238.2417 36.384851 238.44549 37.760308 238.56965 40.089598 C 238.81797 44.748175 238.74672 53.22044 238.60285 70.12866 C 238.52207 79.621502 238.4752 86.674143 238.32746 91.980223 C 238.2536 94.633247 238.15376 96.848815 238.01301 98.716551 C 237.87227 100.58429 237.68961 102.10241 237.44856 103.35913 C 237.20751 104.61586 236.90732 105.61145 236.53254 106.43139 C 236.15776 107.25136 235.70924 107.89736 235.16731 108.45483 C 234.62537 109.01231 233.99186 109.48168 233.24934 109.95093 C 232.50682 110.42019 231.65553 110.88781 230.67903 111.44311 C 229.78505 111.95147 228.84879 112.3537 227.88801 112.6521 C 226.92724 112.95049 225.94096 113.14649 224.94465 113.24389 C 223.94835 113.34129 222.94326 113.34055 221.9427 113.24585 C 220.94214 113.1511 219.94552 112.96127 218.97199 112.68335 C 217.99844 112.40543 217.04742 112.03786 216.13215 111.58569 C 215.21689 111.13352 214.33872 110.59772 213.51301 109.98022 C 212.6873 109.36272 211.91321 108.66427 211.20832 107.89038 C 210.50344 107.11648 209.86658 106.26682 209.31379 105.34546 C 208.84115 104.55767 208.48054 103.84301 208.20442 102.73608 C 207.9283 101.62914 207.73665 100.12943 207.60481 97.767332 C 207.34109 93.043132 207.31379 84.872491 207.31379 69.511473 C 207.31379 53.322767 207.31571 45.194538 207.61067 40.642332 C 207.75814 38.366229 207.97972 36.983724 208.30988 35.935301 C 208.64004 34.886878 209.07988 34.171929 209.66535 33.230223 C 210.43515 31.992036 211.32953 30.905589 212.3177 29.97241 C 213.30586 29.039231 214.388 28.260076 215.53449 27.632566 C 216.68098 27.005057 217.89122 26.529914 219.13606 26.208738 C 220.3809 25.887564 221.65955 25.719012 222.9427 25.704832 z M 101.49153 75.593504 C 101.95103 75.592004 102.41259 75.613257 102.87434 75.657957 C 103.79783 75.747427 104.72459 75.929825 105.64582 76.206785 C 106.56706 76.483745 107.48269 76.855323 108.38801 77.323973 C 109.00089 77.641231 110.17737 78.562146 111.77082 79.937254 C 113.36428 81.31236 115.37521 83.140612 117.65363 85.277098 C 122.21049 89.550078 127.8413 95.049876 133.36457 100.5896 C 138.88788 106.12931 144.30398 111.70954 148.42903 116.14429 C 150.49152 118.36165 152.23172 120.29238 153.50129 121.78882 C 154.77087 123.28523 155.57025 124.34691 155.75129 124.82593 C 156.10682 125.7666 156.37423 126.72274 156.55793 127.68335 C 156.74164 128.64395 156.84147 129.6101 156.86067 130.56811 C 156.87987 131.52612 156.81895 132.47702 156.68098 133.40991 C 156.54301 134.34281 156.32818 135.25706 156.04035 136.14233 C 155.75251 137.0276 155.39063 137.88385 154.96028 138.69897 C 154.52991 139.51409 154.02977 140.28902 153.46418 141.01147 C 152.8986 141.73393 152.26704 142.4042 151.57356 143.01147 C 150.88008 143.61874 150.1259 144.163 149.31184 144.63257 C 148.31223 145.20917 147.23511 145.68372 146.11653 146.05249 C 144.99793 146.42126 143.83746 146.68402 142.67121 146.83569 C 141.50496 146.98738 140.33138 147.02758 139.18879 146.95288 C 138.0462 146.87817 136.93365 146.68903 135.88606 146.37866 C 135.27628 146.198 134.39827 145.68825 133.20246 144.80835 C 132.00667 143.92844 130.49269 142.67768 128.61262 141.01147 C 124.85249 137.67909 119.62687 132.68717 112.54035 125.68725 C 106.22976 119.45378 101.44904 114.71761 97.81965 111.00952 C 94.190278 107.30144 91.711938 104.62032 90.00715 102.49389 C 89.154762 101.43069 88.494868 100.50661 87.98176 99.661863 C 87.46865 98.817105 87.101732 98.052626 86.833322 97.308348 C 86.564922 96.564088 86.394961 95.839627 86.276681 95.077879 C 86.158413 94.316141 86.091335 93.516083 86.028635 92.618895 C 85.866405 90.298339 85.870328 88.750759 86.155588 87.429441 C 86.298218 86.768773 86.511335 86.16346 86.809885 85.548582 C 87.108423 84.933704 87.492082 84.308378 87.9759 83.60327 C 88.62578 82.65617 89.318508 81.788528 90.048166 81.00366 C 90.777824 80.218812 91.545365 79.516591 92.341135 78.898191 C 93.136893 78.279783 93.961675 77.746322 94.809885 77.298582 C 95.658083 76.850832 96.528385 76.489419 97.415353 76.216551 C 98.302321 75.943671 99.206418 75.759568 100.11848 75.66577 C 100.57451 75.61887 101.03201 75.594504 101.49153 75.593504 z M 345.68684 76.54077 C 346.05459 76.546068 346.41836 76.561098 346.77863 76.589598 C 348.21968 76.703558 349.59133 77.00559 350.80793 77.50952 C 351.85763 77.944298 352.92983 78.614618 353.96223 79.445066 C 354.99473 80.275516 355.9869 81.26439 356.87238 82.333738 C 357.75787 83.403086 358.53722 84.553364 359.14582 85.704832 C 359.75452 86.85629 360.19187 88.010847 360.39387 89.087645 C 360.57987 90.079463 360.71687 90.98324 360.76887 91.85327 C 360.82077 92.723318 360.7883 93.558082 360.6341 94.40991 C 360.4799 95.261758 360.20496 96.130895 359.77278 97.068113 C 359.34058 98.005331 358.75019 99.010308 357.96809 100.13647 C 356.40389 102.3888 354.06874 105.12411 350.67317 108.75366 C 347.27752 112.38322 342.82328 116.90853 337.02082 122.74389 C 331.07834 128.72014 325.31419 134.32282 320.8177 138.53686 C 316.32117 142.75092 313.09202 145.5764 312.21223 145.99389 C 311.33243 146.41138 310.04322 146.78973 308.67512 147.06421 C 307.30702 147.33869 305.85934 147.50857 304.6634 147.50757 C 303.38322 147.50647 302.14823 147.3505 300.97395 147.05639 C 299.79967 146.76229 298.68644 146.3301 297.64582 145.781 C 296.60521 145.23191 295.63828 144.56464 294.7591 143.79858 C 293.87993 143.03253 293.08774 142.1674 292.39778 141.22241 C 291.70779 140.27742 291.11885 139.25363 290.64582 138.16772 C 290.1728 137.08182 289.81553 135.93464 289.58723 134.74585 C 289.35893 133.55705 289.25983 132.32568 289.30403 131.07202 C 289.34821 129.81837 289.53577 128.54197 289.8802 127.26147 C 290.12066 126.36749 290.50763 125.45752 291.21028 124.33569 C 291.91291 123.21386 292.93148 121.88073 294.43684 120.13647 C 297.44754 116.64798 302.40457 111.51914 310.66926 103.17358 C 321.47417 92.262936 332.04154 81.956601 334.15363 80.269285 C 335.26797 79.379047 336.56252 78.635618 337.95246 78.052488 C 339.34242 77.46936 340.82861 77.045029 342.32746 76.796629 C 343.45162 76.610369 344.58359 76.52477 345.68684 76.54077 z M 221.96028 125.62475 C 224.18993 125.60655 226.42007 125.67376 228.64778 125.82593 C 230.87545 125.97811 233.10085 126.21648 235.31574 126.54077 C 237.53063 126.86506 239.73579 127.27505 241.92707 127.77319 C 244.11837 128.27133 246.29561 128.85727 248.45246 129.531 C 250.60933 130.20473 252.74514 130.96705 254.85676 131.81811 C 256.96838 132.66917 259.0551 133.60831 261.11067 134.63843 C 263.73422 135.9532 266.27957 137.39325 268.74153 138.94897 C 271.20345 140.50469 273.58276 142.17666 275.87043 143.95874 C 278.15812 145.74082 280.3556 147.63284 282.45637 149.62671 C 284.55714 151.62058 286.56101 153.71687 288.46223 155.90796 C 290.36345 158.09903 292.16189 160.38382 293.8509 162.75757 C 295.53992 165.13129 297.11915 167.5927 298.58332 170.13452 C 300.04749 172.67633 301.39572 175.29859 302.62238 177.99389 C 303.84905 180.68922 304.95443 183.45848 305.93098 186.29272 C 306.75612 188.68751 307.37833 190.50853 307.84699 192.16186 C 308.31564 193.81519 308.63078 195.3014 308.84309 197.0271 C 309.0554 198.7528 309.16394 200.71791 309.22004 203.32983 C 309.27654 205.94175 309.28059 209.19952 309.28059 213.51147 C 309.28059 217.82344 309.27614 221.08121 309.22004 223.69311 C 309.16395 226.30503 309.0554 228.2721 308.84309 229.9978 C 308.63078 231.7235 308.31563 233.20775 307.84699 234.86108 C 307.37833 236.51441 306.75611 238.33545 305.93098 240.73022 C 304.82574 243.93799 303.60801 246.99384 302.26692 249.91577 C 300.92581 252.83769 299.46056 255.62677 297.85871 258.30444 C 296.25686 260.9821 294.51963 263.5482 292.63215 266.02319 C 290.74467 268.49818 288.70707 270.88117 286.5091 273.19507 C 283.5094 276.35297 280.50248 279.1873 277.42512 281.73804 C 275.88644 283.0134 274.33123 284.21894 272.74934 285.35718 C 271.16745 286.49539 269.56023 287.567 267.91926 288.57788 C 266.2783 289.58875 264.60392 290.53812 262.88801 291.43139 C 261.1721 292.32469 259.41348 293.16154 257.60676 293.94702 C 253.99333 295.51797 250.18251 296.88343 246.11067 298.08179 C 243.36904 298.88865 240.18469 299.55109 236.78059 300.05639 C 233.37647 300.56172 229.7525 300.91032 226.13606 301.09155 C 222.51959 301.27279 218.90925 301.28628 215.53059 301.12085 C 212.15191 300.95542 209.00456 300.61058 206.31379 300.07593 C 203.67268 299.55116 201.08167 298.92152 198.54426 298.18921 C 196.00685 297.45689 193.52445 296.62309 191.09895 295.69311 C 188.67342 294.76313 186.3048 293.73667 183.99934 292.61889 C 181.69388 291.50114 179.44996 290.29155 177.27278 288.99585 C 175.09557 287.70016 172.98543 286.31702 170.94465 284.85327 C 168.90387 283.38951 166.93261 281.84434 165.03645 280.22241 C 163.14028 278.60046 161.31888 276.90281 159.57551 275.13257 C 157.83214 273.3623 156.16764 271.51979 154.58528 269.61108 C 153.00289 267.70237 151.50241 265.72647 150.08918 263.68921 C 148.67595 261.65193 147.35046 259.55419 146.11457 257.39819 C 144.87869 255.24219 143.73329 253.02825 142.68293 250.76343 C 141.63257 248.4986 140.67631 246.18192 139.81965 243.81811 C 138.963 241.45433 138.20488 239.04444 137.55012 236.59155 C 136.89536 234.13865 136.34442 231.64322 135.89973 229.11108 C 135.45504 226.57895 135.1164 224.00943 134.88996 221.40796 C 134.66353 218.80647 134.54817 216.17246 134.54817 213.51147 C 134.54817 210.43019 134.68511 207.41062 134.95832 204.45093 C 135.23154 201.49123 135.64134 198.59221 136.18879 195.75171 C 136.73625 192.91119 137.42076 190.12979 138.24348 187.406 C 139.0662 184.68224 140.02729 182.01548 141.12629 179.406 C 142.2253 176.79654 143.46286 174.24345 144.83918 171.74585 C 146.2155 169.24825 147.7314 166.80588 149.38606 164.41772 C 151.0407 162.02958 152.83485 159.69494 154.76887 157.41382 C 156.70289 155.13267 158.77712 152.90482 160.99153 150.72827 C 162.64615 149.10189 164.3557 147.55125 166.11653 146.07788 C 167.87732 144.6045 169.68808 143.20901 171.54426 141.89038 C 173.40044 140.57173 175.30276 139.3299 177.24348 138.16772 C 179.1842 137.00555 181.16458 135.92169 183.17903 134.91772 C 185.19345 133.91376 187.24229 132.99025 189.31965 132.14624 C 191.39701 131.30222 193.5027 130.53755 195.63215 129.85522 C 197.76161 129.17289 199.91454 128.57335 202.08528 128.05444 C 204.25598 127.53554 206.44463 127.09764 208.64582 126.74389 C 210.84703 126.39015 213.05974 126.12019 215.28059 125.93335 C 217.50144 125.7465 219.73059 125.64295 221.96028 125.62475 z M 222.81379 157.51147 L 220.06379 157.52905 C 218.55129 157.5386 214.34568 158.17569 210.71613 158.94507 C 208.21015 159.47627 205.74671 160.1968 203.34699 161.08764 C 200.94728 161.97851 198.6099 163.03955 196.35285 164.25561 C 194.09582 165.47168 191.91909 166.84256 189.84113 168.34936 C 187.76317 169.85616 185.78369 171.4984 183.92121 173.26147 C 182.05873 175.02454 180.31305 176.90746 178.70246 178.89233 C 177.09189 180.8772 175.61654 182.96426 174.29426 185.13647 C 172.97198 187.30869 171.80355 189.56724 170.80598 191.89233 C 169.80841 194.21742 168.98149 196.60899 168.34504 199.05249 C 167.85435 200.93638 167.48687 203.21569 167.24153 205.69116 C 166.99618 208.16662 166.87434 210.83883 166.87434 213.51147 C 166.87434 216.18414 166.99618 218.85632 167.24153 221.33179 C 167.48687 223.80724 167.85435 226.08658 168.34504 227.97046 C 168.97386 230.38463 169.79351 232.75312 170.78449 235.0603 C 171.77545 237.36747 172.93837 239.6135 174.25324 241.7771 C 175.56812 243.94071 177.0355 246.02216 178.63606 248.00561 C 180.2366 249.98909 181.96971 251.8736 183.8177 253.64038 C 185.66569 255.40715 187.62773 257.05655 189.68488 258.57007 C 191.74204 260.08356 193.89429 261.46161 196.12238 262.6853 C 198.35047 263.90899 200.65612 264.9794 203.01692 265.87671 C 205.37769 266.77401 207.79409 267.49861 210.24934 268.03296 C 213.58492 268.75891 217.77629 269.38769 219.56379 269.43139 L 222.81379 269.51147 L 222.81379 213.51147 L 222.81379 157.51147 z M 78.88801 197.01147 L 111.46028 197.01147 L 115.08528 199.49389 C 116.2232 200.27363 117.27418 201.20668 118.21223 202.24194 C 119.15028 203.2772 119.97382 204.415 120.65559 205.60718 C 121.33736 206.79933 121.87829 208.04616 122.24738 209.29663 C 122.61646 210.54709 122.81379 211.80133 122.81379 213.01147 C 122.81379 214.23671 122.59259 215.54025 122.19074 216.84936 C 121.78887 218.15848 121.20721 219.47329 120.48762 220.72046 C 119.76804 221.96762 118.90954 223.14786 117.95637 224.18725 C 117.0032 225.22665 115.95546 226.1245 114.85285 226.8103 C 113.9959 227.3433 113.28593 227.74866 112.23371 228.05835 C 111.18149 228.36803 109.78576 228.58197 107.55988 228.73608 C 103.1081 229.04429 95.330711 229.11058 80.313791 229.20288 C 71.788827 229.2553 63.748958 229.2117 57.661447 229.09936 C 51.573919 228.98703 47.439113 228.80463 46.727853 228.58179 C 45.879745 228.31606 45.058447 227.97973 44.268869 227.57983 C 43.479301 227.17993 42.720702 226.71728 42.003244 226.20093 C 40.568306 225.16824 39.291038 223.91921 38.2259 222.5271 C 37.160772 221.13499 36.308802 219.5997 35.721994 217.98999 C 35.428574 217.18514 35.201656 216.36171 35.048166 215.52905 C 34.894686 214.69639 34.813791 213.85421 34.813791 213.01147 C 34.813791 211.78624 35.036931 210.48269 35.438791 209.17358 C 35.840649 207.86447 36.422328 206.54965 37.141916 205.30249 C 37.861494 204.05533 38.718045 202.87509 39.671213 201.83569 C 40.624371 200.7963 41.674074 199.89844 42.776682 199.21264 C 43.64087 198.67517 44.340504 198.26778 45.401682 197.96069 C 46.462868 197.6536 47.885816 197.44709 50.19465 197.30639 C 54.812332 197.02497 62.975839 197.01147 78.88801 197.01147 z M 366.81379 198.01147 C 382.68816 198.01147 390.8338 198.02496 395.4427 198.30639 C 397.74708 198.44711 399.16766 198.65362 400.22785 198.96069 C 401.28805 199.26776 401.98876 199.67523 402.85285 200.21264 C 403.76225 200.77826 404.60147 201.42756 405.36457 202.14429 C 406.12777 202.86101 406.81547 203.64544 407.42317 204.48022 C 408.03097 205.31501 408.55809 206.19916 409.00129 207.11889 C 409.44439 208.03865 409.8021 208.99295 410.0716 209.9646 C 410.341 210.93625 410.52171 211.9253 410.60871 212.91577 C 410.69565 213.90623 410.68697 214.89855 410.58137 215.87475 C 410.47587 216.85096 410.27293 217.81113 409.96613 218.73999 C 409.65933 219.66886 409.24906 220.56731 408.73176 221.41577 C 407.99246 222.62848 407.26513 223.66092 406.50324 224.54858 C 405.74134 225.43625 404.94425 226.17914 404.06965 226.80639 C 403.19505 227.43366 402.24295 227.94516 401.16535 228.37671 C 400.08786 228.80825 398.88556 229.15826 397.51496 229.45874 C 396.19287 229.74859 392.03479 229.97377 386.45051 230.12866 C 380.86624 230.28356 373.85609 230.36837 366.82942 230.38257 C 359.80272 230.39678 352.75819 230.33893 347.10871 230.20679 C 341.45921 230.07464 337.20391 229.86798 335.75129 229.58374 C 334.59612 229.3577 333.5004 229.01628 332.46613 228.55835 C 331.43187 228.10042 330.45895 227.52597 329.55012 226.8396 C 328.6413 226.15322 327.79573 225.35449 327.01692 224.44311 C 326.2381 223.53173 325.5264 222.5077 324.88215 221.37475 C 324.376 220.48465 323.97338 219.55938 323.66926 218.61108 C 323.36514 217.66278 323.15988 216.69255 323.05012 215.7146 C 322.94032 214.73665 322.92634 213.75031 323.00324 212.77124 C 323.08016 211.79218 323.2473 210.82054 323.50324 209.86889 C 323.75916 208.91727 324.10332 207.98528 324.53059 207.0896 C 324.95786 206.19391 325.46897 205.33438 326.05988 204.52319 C 326.6508 203.712 327.32079 202.94986 328.0677 202.25171 C 328.81461 201.55356 329.63732 200.9196 330.53254 200.36304 C 331.47425 199.7776 332.18919 199.33772 333.23762 199.00757 C 334.28605 198.67741 335.66854 198.45583 337.94465 198.30835 C 342.49687 198.01348 350.62505 198.01147 366.81379 198.01147 z M 340.89192 266.47436 A 63.06343 63.06343 0 0 1 403.95637 329.53686 A 63.06343 63.06343 0 0 1 340.89192 392.60132 A 63.06343 63.06343 0 0 1 277.82942 329.53686 A 63.06343 63.06343 0 0 1 340.89192 266.47436 z M 141.18293 279.39819 C 142.32166 279.44826 143.43251 279.6177 144.50324 279.89819 C 145.57397 280.17868 146.60527 280.57078 147.58137 281.06811 C 148.55747 281.56545 149.47853 282.16832 150.33332 282.86889 C 151.18812 283.56948 151.97611 284.36731 152.68293 285.25757 C 153.38976 286.14783 154.01598 287.12872 154.54817 288.19507 C 155.08036 289.26141 155.51806 290.41348 155.84895 291.64233 C 156.12109 292.65297 156.33816 293.57154 156.46418 294.44897 C 156.59018 295.32641 156.6252 296.16319 156.5384 297.00952 C 156.45157 297.85584 156.24271 298.71133 155.87629 299.62866 C 155.50987 300.54599 154.98551 301.52457 154.27278 302.61499 C 153.56003 303.70542 152.65836 304.90756 151.53254 306.27319 C 150.40673 307.63882 149.05809 309.16697 147.45246 310.90991 C 144.24125 314.39578 140.00287 318.73971 134.47199 324.34741 C 128.92858 329.9678 123.38842 335.39946 118.92903 339.6228 C 114.46961 343.84613 111.09107 346.86078 109.86848 347.64819 C 108.2346 348.70049 106.81553 349.41614 105.37629 349.86889 C 103.93705 350.32164 102.47816 350.51147 100.76692 350.51147 C 99.324884 350.51147 97.939938 350.31605 96.63215 349.95483 C 95.324364 349.59361 94.093467 349.06635 92.956369 348.4021 C 91.819271 347.73784 90.776932 346.93619 89.846994 346.0271 C 88.917036 345.118 88.09977 344.10136 87.4134 343.00561 C 86.727032 341.90986 86.171291 340.73568 85.764963 339.51147 C 85.358643 338.28726 85.100856 337.01299 85.011056 335.7185 C 84.921218 334.42404 84.99991 333.10905 85.26301 331.80249 C 85.526108 330.49593 85.973803 329.19771 86.626291 327.93725 C 86.943561 327.32437 87.864466 326.14789 89.239572 324.55444 C 90.61469 322.96099 92.444883 320.95202 94.581369 318.67358 C 98.854351 314.11672 104.35219 308.48398 109.89192 302.96069 C 115.43162 297.43741 121.01188 292.02322 125.4466 287.89819 C 127.66397 285.83567 129.59666 284.09549 131.09309 282.82593 C 132.58952 281.55636 133.65117 280.75698 134.1302 280.57593 C 135.3249 280.1244 136.51851 279.80503 137.69856 279.61108 C 138.87861 279.41719 140.0442 279.34809 141.18293 279.39819 z M 330.6966 290.36108 L 307.34699 364.98413 L 324.51692 364.98413 L 329.09309 347.24389 L 351.87043 347.24389 L 356.44856 364.98413 L 374.30207 364.98413 L 350.95442 290.36108 L 330.6966 290.36108 z M 340.19465 303.17944 L 340.65363 303.17944 C 341.64556 307.0708 342.63828 311.11372 343.6302 315.3103 C 344.62212 319.50687 345.65183 323.47583 346.72004 327.2146 L 348.43684 334.08179 L 332.52668 334.08179 L 334.35871 327.2146 C 335.42693 323.47583 336.41966 319.54581 337.33528 315.42554 C 338.32719 311.22897 339.27904 307.14711 340.19465 303.17944 z M 222.76887 309.94897 C 223.27164 309.93427 223.77621 309.94467 224.27863 309.97827 C 225.28349 310.04567 226.28337 310.20844 227.26301 310.4646 C 228.24265 310.72076 229.20365 311.0704 230.12824 311.50757 C 231.05283 311.94474 231.94085 312.46944 232.78059 313.07983 C 233.62032 313.69023 234.41099 314.38604 235.13606 315.16186 C 235.86112 315.93768 236.52228 316.79482 237.10285 317.72827 C 237.64028 318.59234 238.04578 319.29112 238.35285 320.35132 C 238.65993 321.41152 238.86839 322.83204 239.0091 325.13647 C 239.29057 329.74531 239.30207 337.89094 239.30207 353.76538 C 239.30207 369.95408 239.30007 378.0823 239.0052 382.63452 C 238.85772 384.91062 238.63809 386.29313 238.30793 387.34155 C 237.97777 388.38998 237.53794 389.10492 236.95246 390.04663 C 236.306 391.08642 235.28313 392.25249 234.15754 393.29468 C 233.03195 394.33685 231.80284 395.25518 230.74153 395.79663 C 229.81629 396.26864 228.8727 396.64663 227.92121 396.93335 C 226.96973 397.22007 226.01053 397.41478 225.05207 397.52124 C 224.09361 397.62764 223.13691 397.64668 222.19074 397.57788 C 221.24457 397.50908 220.30849 397.35396 219.39387 397.11499 C 218.47925 396.87602 217.58577 396.55232 216.72199 396.14819 C 215.85819 395.74407 215.02547 395.25933 214.23176 394.69507 C 213.43805 394.13081 212.68416 393.48669 211.97981 392.76733 C 211.27546 392.04798 210.62046 391.25392 210.02473 390.38452 C 209.4781 389.58677 209.06579 388.95219 208.7552 387.9353 C 208.44461 386.91842 208.2356 385.51759 208.09504 383.18921 C 207.81389 378.53242 207.80688 370.16 207.80988 353.70288 C 207.81188 344.30217 207.80489 337.29718 207.91535 332.00171 C 207.97075 329.35397 208.05484 327.13337 208.18488 325.25561 C 208.31491 323.37786 208.49164 321.84289 208.72785 320.56421 C 208.96406 319.28553 209.26015 318.26233 209.6341 317.41186 C 210.00805 316.56138 210.45999 315.88393 211.00324 315.29077 C 211.54649 314.69762 212.18098 314.19008 212.92512 313.68335 C 213.66926 313.17662 214.52276 312.66906 215.49934 312.07788 C 216.40105 311.53202 217.34202 311.09513 218.30793 310.76147 C 219.27384 310.4278 220.26467 310.19737 221.26496 310.06811 C 221.76511 310.00347 222.2661 309.96367 222.76887 309.94897 z " />
    </g>
  </g>
</svg>
