<?xml version="1.0" encoding="UTF-8" standalone="no"?>
<svg
   enable-background="new 0 0 24 24"
   height="24"
   viewBox="0 0 24 24"
   width="24"
   version="1.1"
   id="svg10"
   sodipodi:docname="browser-not-supported.svg"
   inkscape:version="1.2.1 (9c6d41e410, 2022-07-14)"
   xmlns:inkscape="http://www.inkscape.org/namespaces/inkscape"
   xmlns:sodipodi="http://sodipodi.sourceforge.net/DTD/sodipodi-0.dtd"
   xmlns="http://www.w3.org/2000/svg"
   xmlns:svg="http://www.w3.org/2000/svg">
  <defs
     id="defs14" />
  <sodipodi:namedview
     id="namedview12"
     pagecolor="#ffffff"
     bordercolor="#ffffff"
     borderopacity="0.25"
     inkscape:showpageshadow="2"
     inkscape:pageopacity="0.0"
     inkscape:pagecheckerboard="0"
     inkscape:deskcolor="#d1d1d1"
     showgrid="false"
     inkscape:zoom="34.541667"
     inkscape:cx="9.3655006"
     inkscape:cy="12.014475"
     inkscape:window-width="1536"
     inkscape:window-height="793"
     inkscape:window-x="1912"
     inkscape:window-y="-8"
     inkscape:window-maximized="1"
     inkscape:current-layer="svg10" />
  <path
     d="m0 0h24v24h-24z"
     fill="none"
     id="path2"
     style="opacity:0.73316062" />
  <path
     d="m0 0h24v24h-24z"
     fill="none"
     id="path4"
     style="opacity:0.73316062" />
  <path
     d="m19 6v10.5l1.95 1.95c.03-.15.05-.3.05-.45v-12c0-1.1-.9-2-2-2h-12.5l2 2z"
     id="path6"
     style="opacity:0.73316062" 
     fill="#fff"/>
  <path
     d="m3.86 3.95c-.35-.35-.92-.35-1.27 0s-.35.92 0 1.27l.41.42v12.36c0 1.1.9 2 2 2h12.36l1.42 1.42c.35.35.92.35 1.27 0s.35-.92 0-1.27zm1.14 14.05v-10.36l10.36 10.36z"
     id="path8"
     style="opacity:0.73316062" 
     fill="#fff"/>
</svg>
