<?xml version="1.0" encoding="UTF-8" standalone="no"?>
<!-- Created with Inkscape (http://www.inkscape.org/) -->

<svg
   version="1.1"
   id="svg5516"
   width="396.2793"
   height="400.58984"
   viewBox="0 0 396.2793 400.58985"
   sodipodi:docname="call-iconl.svg"
   inkscape:export-filename="call.svg"
   inkscape:export-xdpi="96"
   inkscape:export-ydpi="96"
   xmlns:inkscape="http://www.inkscape.org/namespaces/inkscape"
   xmlns:sodipodi="http://sodipodi.sourceforge.net/DTD/sodipodi-0.dtd"
   xmlns="http://www.w3.org/2000/svg"
   xmlns:svg="http://www.w3.org/2000/svg">
  <defs
     id="defs5520" />
  <sodipodi:namedview
     id="namedview5518"
     pagecolor="#ffffff"
     bordercolor="#000000"
     borderopacity="0.25"
     inkscape:showpageshadow="2"
     inkscape:pageopacity="0.0"
     inkscape:pagecheckerboard="0"
     inkscape:deskcolor="#d1d1d1"
     showgrid="false"
     inkscape:zoom="1.3914259"
     inkscape:cx="99.897521"
     inkscape:cy="216.32485"
     inkscape:window-width="1920"
     inkscape:window-height="1009"
     inkscape:window-x="-8"
     inkscape:window-y="-8"
     inkscape:window-maximized="1"
     inkscape:current-layer="g5522" />
  <g
     inkscape:groupmode="layer"
     inkscape:label="Image"
     id="g5522"
     transform="translate(-3.0927674,-8.8427676)">
    <path
       id="path6739"
       style="fill:#ffffff;fill-opacity:0.732057stroke:#000000;stroke-width:1.86134;stroke-opacity:0"
       d="M 201.23242,9.7734375 A 197.2083,199.36438 0 0 0 4.0234375,209.13867 197.2083,199.36438 0 0 0 201.23242,408.50195 197.2083,199.36438 0 0 0 398.44141,209.13867 197.2083,199.36438 0 0 0 201.23242,9.7734375 Z M 130.77344,104.06445 c 23.80896,0.006 25.7505,0.14766 29.50781,2.1211 2.36527,1.24232 5.81045,4.35483 7.14258,6.45312 1.66923,2.62926 2.31241,5.5827 2.65429,12.1836 0.59281,11.4456 2.06053,20.04336 5.17383,30.3125 2.08858,6.88906 2.4254,9.1086 1.82422,12.04101 -0.77177,3.76451 -2.49582,6.2829 -13.21679,19.31055 -5.63843,6.85154 -10.35097,12.69268 -10.47266,12.98242 -0.29241,0.69619 4.51472,8.61034 8.98828,14.79883 12.87453,17.81003 28.05829,30.77144 48.95312,41.78515 4.53841,2.39219 5.92715,2.94898 6.50977,2.61133 0.40725,-0.23602 6.6996,-4.60739 13.98242,-9.71484 7.28284,-5.10746 14.42886,-9.84629 15.88086,-10.5293 2.23523,-1.05144 3.26694,-1.26337 6.73242,-1.39062 3.69273,-0.13557 4.7074,0.0116 10.37696,1.50195 11.56832,3.04091 20.13843,4.30976 33.89062,5.02344 4.66875,0.24229 8.14613,0.63172 9.41016,1.05078 6.45667,2.14063 10.86224,6.88977 12.13086,13.07812 0.59937,2.92382 0.60137,41.93978 0.002,44.91016 -1.40053,6.94231 -7.23531,12.32642 -14.79297,13.65234 -2.68263,0.47067 -8.32191,0.46008 -16.625,-0.0332 -42.9076,-2.54905 -83.86771,-17.11949 -117.59765,-41.83008 -15.50074,-11.35586 -29.94295,-25.44593 -41.36524,-40.35742 -20.39431,-26.62422 -32.902082,-56.5114 -37.392577,-89.3457 -1.14532,-8.37453 -1.828481,-22.61159 -1.242187,-25.88477 1.336816,-7.46319 7.030747,-12.93746 14.890624,-14.3164 1.40428,-0.24638 11.54177,-0.41769 24.6543,-0.41407 z" />
  </g>
</svg>
