<?xml version="1.0" encoding="UTF-8" standalone="no"?>
<!-- Created with Inkscape (http://www.inkscape.org/) -->

<svg
   version="1.1"
   id="svg11107"
   width="502.49945"
   height="502.49945"
   viewBox="0 0 502.49945 502.49945"
   sodipodi:docname="email(1).png"
   xmlns:inkscape="http://www.inkscape.org/namespaces/inkscape"
   xmlns:sodipodi="http://sodipodi.sourceforge.net/DTD/sodipodi-0.dtd"
   xmlns="http://www.w3.org/2000/svg"
   xmlns:svg="http://www.w3.org/2000/svg">
  <defs
     id="defs11111" />
  <sodipodi:namedview
     id="namedview11109"
     pagecolor="#ffffff"
     bordercolor="#000000"
     borderopacity="0.25"
     inkscape:showpageshadow="2"
     inkscape:pageopacity="0.0"
     inkscape:pagecheckerboard="0"
     inkscape:deskcolor="#d1d1d1"
     showgrid="false" />
  <g
     inkscape:groupmode="layer"
     inkscape:label="Image"
     id="g11113"
     transform="translate(-1.9709905,-4.4416938)">
    <path
       id="path11599"
       style="fill:#ffffff;fill-opacity:0.732057stroke:#000000;stroke-width:1.0463;stroke-opacity:0"
       d="M 253.2207,4.9648438 A 250.72714,250.72714 0 0 0 2.4941406,255.69141 250.72714,250.72714 0 0 0 253.2207,506.41797 250.72714,250.72714 0 0 0 503.94727,255.69141 250.72714,250.72714 0 0 0 253.2207,4.9648438 Z m 6.80664,145.3222662 c 58.32906,0 116.65778,0.29419 119.43555,0.88281 16.45535,3.48696 25.39458,21.7352 17.87109,36.48242 -2.68127,5.25573 -4.62931,6.66143 -65.3496,47.1543 -32.50331,21.67567 -60.32919,39.97065 -61.83399,40.65625 -2.48879,1.13394 -8.64303,2.47785 -10.66992,2.33008 -0.45144,-0.0329 -2.16421,-0.28241 -3.80664,-0.55469 -1.64241,-0.2723 -4.22847,-1.06291 -5.7461,-1.75781 -1.51761,-0.69489 -29.35216,-18.99816 -61.85546,-40.67383 -42.35895,-28.24813 -59.81987,-40.18545 -61.64649,-42.14844 -13.07379,-14.04964 -5.09863,-37.40601 14.16602,-41.48828 2.77776,-0.58862 61.10649,-0.88281 119.43554,-0.88281 z m -139.67187,59.26758 c 0.22573,0.10033 27.0045,17.91328 59.50781,39.58593 32.50331,21.67266 60.5241,40.09216 62.26758,40.93165 7.27447,3.50263 16.45607,4.80934 24.26758,3.45312 10.1026,-1.75398 8.30694,-0.67798 72.69922,-43.57227 32.80426,-21.85225 59.95572,-39.92016 60.33789,-40.15039 0.5604,-0.33763 0.66593,12.21137 0.54687,64.87305 l -0.14648,65.29297 -1.3125,3.2832 c -3.5965,9.00127 -11.21317,15.25643 -20.30274,16.67383 -4.48214,0.69894 -232.58085,0.64994 -236.93359,-0.0508 -9.7623,-1.5717 -18.68819,-10.20939 -20.73828,-20.07031 -0.694,-3.3382 -0.88289,-130.55646 -0.19336,-130.25 z" />
  </g>
</svg>
