<?xml version="1.0" encoding="UTF-8" standalone="no"?>
<!-- Created with Inkscape (http://www.inkscape.org/) -->

<svg
   version="1.1"
   id="svg1918"
   width="506.20529"
   height="506.20724"
   viewBox="0 0 506.20529 506.20724"
   xmlns="http://www.w3.org/2000/svg"
   xmlns:svg="http://www.w3.org/2000/svg">
  <defs
     id="defs1922" />
  <g
     id="g1924"
     transform="translate(-1.9705944,-3.2049694)">
    <path
       id="path4078"
       style="fill:#ffffff;fill-opacity:1;stroke:#000000;stroke-width:1.07053;stroke-opacity:0"
       d="M 255.07422,3.7402344 A 252.56787,252.56787 0 0 0 2.5058594,256.30859 252.56787,252.56787 0 0 0 255.07422,508.87695 252.56787,252.56787 0 0 0 507.64062,256.30859 252.56787,252.56787 0 0 0 255.07422,3.7402344 Z M 127.23828,114.43555 h 36.24414 36.24219 l 2.70312,1.33789 c 3.46185,1.7144 7.06816,5.32232 8.5586,8.5625 1.65235,3.59213 1.65235,10.6852 0,14.27734 -1.49044,3.24017 -5.09675,6.84614 -8.5586,8.56055 l -2.70312,1.33984 -25.26367,0.16016 -25.26367,0.16015 -0.16016,25.26368 c -0.15932,25.14243 -0.16647,25.27569 -1.4082,27.77148 -3.14716,6.32561 -8.12628,9.67981 -14.88672,10.03125 -2.78399,0.14473 -4.64618,-0.0718 -6.58985,-0.76758 -3.42792,-1.22691 -6.41658,-3.49675 -8.32031,-6.32031 -3.16017,-4.68706 -3.0332,-2.94737 -3.0332,-41.96484 v -35.97071 l 1.84765,-3.41015 c 2.05282,-3.78595 3.73737,-5.41497 7.83008,-7.57422 z m 179.04883,0 h 36.24219 36.24218 l 3.40625,1.8457 c 3.70227,2.00746 5.95425,4.45903 7.83008,8.52344 l 1.20508,2.61328 v 35.9707 35.97266 l -1.24805,2.50781 c -3.14716,6.32561 -8.12628,9.67981 -14.88672,10.03125 -2.78399,0.14473 -4.64422,-0.0718 -6.58789,-0.76758 -3.43663,-1.23002 -6.42594,-3.50378 -8.30664,-6.32031 -3.17236,-4.75092 -3.03618,-3.44483 -3.20898,-30.71484 l -0.16016,-25.26368 -25.26367,-0.16015 -25.26367,-0.16016 -2.70508,-1.33984 c -3.46185,-1.71441 -7.0662,-5.32038 -8.55664,-8.56055 -1.65235,-3.59214 -1.65235,-10.68521 0,-14.27734 1.49044,-3.24018 5.09479,-6.8481 8.55664,-8.5625 z M 131.83789,293.48828 c 3.95142,-0.004 5.0323,0.20889 7.69336,1.51563 3.40171,1.67043 6.17795,4.55359 8.09766,8.41211 1.24173,2.49578 1.24888,2.62906 1.4082,27.77148 l 0.16016,25.26367 25.26367,0.16016 25.26367,0.16015 2.70312,1.33985 c 3.46185,1.71442 7.06816,5.32038 8.5586,8.56055 1.65235,3.59213 1.65235,10.68519 0,14.27734 -1.49044,3.24016 -5.09675,6.84615 -8.5586,8.56055 l -2.70312,1.33984 -35.16211,0.10937 c -27.26949,0.0843 -35.64609,-0.0467 -37.32422,-0.58203 -5.04675,-1.6102 -8.21103,-4.16815 -10.59375,-8.5625 l -1.8457,-3.40625 v -36.24218 -36.24219 l 1.33789,-2.70508 c 1.7144,-3.46185 5.32232,-7.06619 8.5625,-8.55664 1.96637,-0.9045 3.57971,-1.16974 7.13867,-1.17383 z m 242.33594,0 c 3.95142,-0.004 5.03231,0.20889 7.69336,1.51563 3.4017,1.67043 6.17794,4.55359 8.09765,8.41211 l 1.24805,2.50781 v 35.97265 35.97071 l -1.41797,3.02148 c -1.80133,3.84114 -4.70183,6.74361 -8.54297,8.54492 l -3.02148,1.41602 -34.89063,0.0879 c -19.18947,0.0482 -35.61919,-0.0924 -36.51172,-0.3125 -4.8712,-1.20124 -9.74101,-5.19368 -11.80273,-9.67578 -0.90655,-1.97083 -1.16992,-3.57166 -1.16992,-7.13867 0,-3.56701 0.26337,-5.16786 1.16992,-7.13867 1.49044,-3.24017 5.09479,-6.84613 8.55664,-8.56055 l 2.70508,-1.33985 25.26367,-0.16015 25.26367,-0.16016 0.16016,-25.26367 0.16016,-25.26367 1.33984,-2.70508 c 1.7144,-3.46185 5.32037,-7.06619 8.56055,-8.55664 1.96636,-0.9045 3.57972,-1.16974 7.13867,-1.17383 z" />
  </g>
</svg>
