<?xml version="1.0" encoding="UTF-8" standalone="no"?>
<!-- Created with Inkscape (http://www.inkscape.org/) -->

<svg
   version="1.1"
   id="svg3023"
   width="512"
   height="512"
   viewBox="0 0 512 512"
   sodipodi:docname="mode.svg"
   inkscape:version="1.2.1 (9c6d41e410, 2022-07-14)"
   xmlns:inkscape="http://www.inkscape.org/namespaces/inkscape"
   xmlns:sodipodi="http://sodipodi.sourceforge.net/DTD/sodipodi-0.dtd"
   xmlns="http://www.w3.org/2000/svg"
   xmlns:svg="http://www.w3.org/2000/svg">
  <defs
     id="defs3027" />
  <sodipodi:namedview
     id="namedview3025"
     pagecolor="#ffffff"
     bordercolor="#000000"
     borderopacity="0.25"
     inkscape:showpageshadow="2"
     inkscape:pageopacity="0.0"
     inkscape:pagecheckerboard="0"
     inkscape:deskcolor="#d1d1d1"
     showgrid="false"
     inkscape:zoom="1.1449053"
     inkscape:cx="556.37789"
     inkscape:cy="258.53666"
     inkscape:window-width="1920"
     inkscape:window-height="1009"
     inkscape:window-x="-8"
     inkscape:window-y="-8"
     inkscape:window-maximized="1"
     inkscape:current-layer="g3029" />
  <g
     inkscape:groupmode="layer"
     inkscape:label="Image"
     id="g3029">
    <path
       id="path4020"
       style="fill:#000000;fill-opacity:0.73;stroke:#000000;stroke-width:1.07857;stroke-opacity:0"
       d="M 256.45898 3.0214844 A 253.79907 253.79907 0 0 0 2.6601562 256.82031 A 253.79907 253.79907 0 0 0 256.45898 510.61914 A 253.79907 253.79907 0 0 0 510.25781 256.82031 A 253.79907 253.79907 0 0 0 256.45898 3.0214844 z M 255.82812 68.943359 C 257.12389 68.92904 258.42537 69.070822 259.69922 69.367188 C 260.97306 69.663553 262.22078 70.11493 263.41211 70.722656 C 264.60346 71.330374 265.7389 72.093927 266.78711 73.013672 C 267.83532 73.933417 268.79614 75.009739 269.64062 76.242188 C 270.21287 77.07733 270.64323 77.706622 270.96094 78.716797 C 271.27867 79.726963 271.484 81.116548 271.60938 83.46875 C 271.8601 88.173134 271.78786 96.728231 271.64258 113.80273 C 271.561 123.38893 271.51442 130.5109 271.36523 135.86914 C 271.29064 138.54827 271.189 140.78578 271.04688 142.67188 C 270.90475 144.55799 270.71998 146.09226 270.47656 147.36133 C 270.23314 148.63041 269.9312 149.63487 269.55273 150.46289 C 269.17427 151.29093 268.72109 151.94291 268.17383 152.50586 C 267.62656 153.06882 266.98615 153.54372 266.23633 154.01758 C 265.48652 154.49146 264.62674 154.96267 263.64062 155.52344 C 262.73786 156.03679 261.79249 156.44281 260.82227 156.74414 C 259.85205 157.04547 258.85571 157.2434 257.84961 157.3418 C 256.84351 157.4401 255.82876 157.43935 254.81836 157.34375 C 253.80796 157.24807 252.80147 157.05799 251.81836 156.77734 C 250.83523 156.49669 249.87544 156.12458 248.95117 155.66797 C 248.02691 155.21135 247.14047 154.67044 246.30664 154.04688 C 245.47281 153.42331 244.69034 152.71705 243.97852 151.93555 C 243.26671 151.15405 242.62464 150.29761 242.06641 149.36719 C 241.58913 148.57165 241.22414 147.85023 240.94531 146.73242 C 240.66647 145.61459 240.47298 144.10017 240.33984 141.71484 C 240.07357 136.94419 240.04688 128.69177 240.04688 113.17969 C 240.04687 96.831781 240.04784 88.624321 240.3457 84.027344 C 240.49462 81.728854 240.71933 80.332165 241.05273 79.273438 C 241.38614 78.214699 241.82868 77.493938 242.41992 76.542969 C 243.19729 75.292605 244.10173 74.194309 245.09961 73.251953 C 246.09749 72.309598 247.18988 71.522352 248.34766 70.888672 C 249.50544 70.254993 250.7273 69.7755 251.98438 69.451172 C 253.24145 69.126833 254.53237 68.957699 255.82812 68.943359 z M 133.18359 119.32227 C 133.64763 119.32077 134.11379 119.34162 134.58008 119.38672 C 135.51265 119.47708 136.44862 119.66174 137.37891 119.94141 C 138.30921 120.22109 139.23422 120.59705 140.14844 121.07031 C 140.76735 121.3907 141.95533 122.32036 143.56445 123.70898 C 145.17358 125.09762 147.20307 126.94405 149.50391 129.10156 C 154.10558 133.41656 159.79154 138.97027 165.36914 144.56445 C 170.94675 150.15865 176.41644 155.79315 180.58203 160.27148 C 182.66484 162.51067 184.42303 164.45954 185.70508 165.9707 C 186.98714 167.48184 187.79374 168.55533 187.97656 169.03906 C 188.33558 169.989 188.60551 170.95377 188.79102 171.92383 C 188.97653 172.89387 189.07826 173.87046 189.09766 174.83789 C 189.11705 175.80532 189.05534 176.76496 188.91602 177.70703 C 188.7767 178.6491 188.55824 179.57282 188.26758 180.4668 C 187.97691 181.36077 187.61233 182.22569 187.17773 183.04883 C 186.74313 183.87196 186.23717 184.65325 185.66602 185.38281 C 185.09487 186.11237 184.4581 186.7891 183.75781 187.40234 C 183.05751 188.01558 182.29667 188.56488 181.47461 189.03906 C 180.46518 189.62133 179.37568 190.10221 178.24609 190.47461 C 177.11649 190.847 175.94529 191.11247 174.76758 191.26562 C 173.58985 191.41875 172.40578 191.45821 171.25195 191.38281 C 170.09813 191.30737 168.9739 191.11616 167.91602 190.80273 C 167.30024 190.6203 166.41265 190.10535 165.20508 189.2168 C 163.99752 188.32824 162.46885 187.0654 160.57031 185.38281 C 156.77321 182.01765 151.49604 176.97695 144.33984 169.9082 C 137.96719 163.61344 133.13969 158.83047 129.47461 155.08594 C 125.80954 151.34139 123.3075 148.63367 121.58594 146.48633 C 120.72517 145.41265 120.05917 144.48001 119.54102 143.62695 C 119.02286 142.77388 118.65191 142.00158 118.38086 141.25 C 118.10982 140.49842 117.9378 139.76729 117.81836 138.99805 C 117.69893 138.22882 117.63166 137.42164 117.56836 136.51562 C 117.40454 134.17226 117.4092 132.60775 117.69727 131.27344 C 117.8413 130.60627 118.05594 129.99593 118.35742 129.375 C 118.6589 128.75407 119.04658 128.12221 119.53516 127.41016 C 120.19143 126.45374 120.89011 125.57774 121.62695 124.78516 C 122.36378 123.99258 123.13977 123.28464 123.94336 122.66016 C 124.74694 122.03567 125.579 121.49512 126.43555 121.04297 C 127.29209 120.59081 128.17072 120.22673 129.06641 119.95117 C 129.9621 119.6756 130.87585 119.48923 131.79688 119.39453 C 132.25738 119.34713 132.71955 119.32327 133.18359 119.32227 z M 379.77734 120.27734 C 380.14871 120.28274 380.519 120.29933 380.88281 120.32812 C 382.33804 120.44319 383.72261 120.74892 384.95117 121.25781 C 386.01119 121.69686 387.09417 122.37233 388.13672 123.21094 C 389.17936 124.04957 390.18197 125.04903 391.07617 126.12891 C 391.97038 127.20877 392.7565 128.3704 393.37109 129.5332 C 393.98577 130.69599 394.42687 131.86183 394.63086 132.94922 C 394.81869 133.95079 394.95727 134.86359 395.00977 135.74219 C 395.06218 136.62079 395.02877 137.464 394.87305 138.32422 C 394.71734 139.18444 394.44036 140.06138 394.00391 141.00781 C 393.56746 141.95425 392.97143 142.96822 392.18164 144.10547 C 390.60207 146.37994 388.24343 149.14335 384.81445 152.80859 C 381.38543 156.47383 376.8888 161.04279 371.0293 166.93555 C 365.02836 172.97055 359.20675 178.62928 354.66602 182.88477 C 350.12529 187.14026 346.86499 189.99246 345.97656 190.41406 C 345.08811 190.83565 343.78584 191.21891 342.4043 191.49609 C 341.02275 191.77327 339.56121 191.94436 338.35352 191.94336 C 337.06076 191.94225 335.81278 191.78528 334.62695 191.48828 C 333.44113 191.19129 332.31647 190.75372 331.26562 190.19922 C 330.21479 189.64473 329.23939 188.97086 328.35156 188.19727 C 327.46374 187.42369 326.66357 186.54998 325.9668 185.5957 C 325.27003 184.64142 324.67495 183.60831 324.19727 182.51172 C 323.71959 181.41515 323.35944 180.25711 323.12891 179.05664 C 322.89831 177.85615 322.7972 176.61168 322.8418 175.3457 C 322.88642 174.07971 323.07601 172.79114 323.42383 171.49805 C 323.66665 170.59528 324.05802 169.67583 324.76758 168.54297 C 325.47714 167.41011 326.50524 166.06414 328.02539 164.30273 C 331.06572 160.77993 336.07199 155.60146 344.41797 147.17383 C 355.32914 136.15588 365.99993 125.74688 368.13281 124.04297 C 369.25811 123.14398 370.56513 122.39355 371.96875 121.80469 C 373.37238 121.21583 374.87312 120.78795 376.38672 120.53711 C 377.52192 120.34896 378.66325 120.26114 379.77734 120.27734 z M 254.83594 169.8457 C 257.08754 169.82732 259.34023 169.89517 261.58984 170.04883 C 263.83944 170.20251 266.08753 170.44205 268.32422 170.76953 C 270.5609 171.09701 272.78716 171.51259 275 172.01562 C 277.21284 172.51866 279.41178 173.1087 281.58984 173.78906 C 283.76792 174.46941 285.92425 175.24018 288.05664 176.09961 C 290.18901 176.95903 292.29532 177.90702 294.37109 178.94727 C 297.02047 180.27498 299.59196 181.72976 302.07812 183.30078 C 304.56428 184.87179 306.96717 186.55977 309.27734 188.35938 C 311.58752 190.15897 313.80631 192.07052 315.92773 194.08398 C 318.04914 196.09746 320.07228 198.21314 321.99219 200.42578 C 323.9121 202.63841 325.72798 204.94666 327.43359 207.34375 C 329.13922 209.74083 330.73432 212.22615 332.21289 214.79297 C 333.69145 217.35977 335.05228 220.0067 336.29102 222.72852 C 337.52976 225.45034 338.64667 228.24725 339.63281 231.10938 C 340.46606 233.52771 341.09509 235.36752 341.56836 237.03711 C 342.04163 238.70669 342.35983 240.20655 342.57422 241.94922 C 342.78862 243.69189 342.89848 245.67686 342.95508 248.31445 C 343.01218 250.95206 343.01562 254.24134 343.01562 258.5957 C 343.01562 262.95007 343.01168 266.24131 342.95508 268.87891 C 342.89844 271.5165 342.78862 273.50147 342.57422 275.24414 C 342.35983 276.98681 342.04162 278.48666 341.56836 280.15625 C 341.09509 281.82583 340.46605 283.66369 339.63281 286.08203 C 338.51671 289.32134 337.28789 292.40872 335.93359 295.35938 C 334.5793 298.31002 333.09807 301.12608 331.48047 303.83008 C 329.86286 306.53407 328.10915 309.12567 326.20312 311.625 C 324.29709 314.12432 322.23911 316.53054 320.01953 318.86719 C 316.9903 322.05615 313.95526 324.91832 310.84766 327.49414 C 309.29385 328.78207 307.72244 329.99901 306.125 331.14844 C 304.52756 332.29786 302.90515 333.37958 301.24805 334.40039 C 299.59096 335.42121 297.89878 336.38113 296.16602 337.2832 C 294.43324 338.18528 292.65845 339.02906 290.83398 339.82227 C 287.18503 341.40865 283.33652 342.7879 279.22461 343.99805 C 276.45604 344.81286 273.24032 345.4819 269.80273 345.99219 C 266.36516 346.50249 262.70476 346.8541 259.05273 347.03711 C 255.40072 347.22014 251.75565 347.23347 248.34375 347.06641 C 244.93185 346.89935 241.75432 346.55163 239.03711 346.01172 C 236.37002 345.48179 233.7518 344.84693 231.18945 344.10742 C 228.6271 343.3679 226.12125 342.52506 223.67188 341.58594 C 221.22251 340.64681 218.83008 339.61119 216.50195 338.48242 C 214.17384 337.35366 211.9076 336.1307 209.70898 334.82227 C 207.51037 333.51384 205.3792 332.11681 203.31836 330.63867 C 201.25752 329.16051 199.26831 327.60077 197.35352 325.96289 C 195.43871 324.32499 193.59839 322.60993 191.83789 320.82227 C 190.07738 319.03459 188.39678 317.17552 186.79883 315.24805 C 185.20088 313.32057 183.68494 311.32489 182.25781 309.26758 C 180.83068 307.21026 179.49218 305.09126 178.24414 302.91406 C 176.9961 300.73686 175.83999 298.50195 174.7793 296.21484 C 173.71861 293.92775 172.75375 291.58823 171.88867 289.20117 C 171.02359 286.81413 170.25689 284.37935 169.5957 281.90234 C 168.9345 279.42533 168.37874 276.90665 167.92969 274.34961 C 167.48063 271.79259 167.13883 269.19738 166.91016 266.57031 C 166.68151 263.94325 166.56445 261.28286 166.56445 258.5957 C 166.56445 255.48411 166.70263 252.43607 166.97852 249.44727 C 167.25443 246.45846 167.66787 243.53056 168.2207 240.66211 C 168.77355 237.79365 169.46608 234.98495 170.29688 232.23438 C 171.12768 229.48382 172.09722 226.79139 173.20703 224.15625 C 174.31684 221.52111 175.56718 218.94208 176.95703 216.41992 C 178.34689 213.89776 179.8779 211.43118 181.54883 209.01953 C 183.21977 206.60789 185.03134 204.25083 186.98438 201.94727 C 188.93739 199.64369 191.0314 197.39327 193.26758 195.19531 C 194.9385 193.55294 196.66521 191.98786 198.44336 190.5 C 200.22149 189.01214 202.0494 187.60309 203.92383 186.27148 C 205.79825 184.93988 207.7199 183.68533 209.67969 182.51172 C 211.6395 181.33813 213.63957 180.24431 215.67383 179.23047 C 217.70809 178.21663 219.77721 177.28395 221.875 176.43164 C 223.97278 175.57933 226.09961 174.80622 228.25 174.11719 C 230.40039 173.42815 232.57354 172.82284 234.76562 172.29883 C 236.95769 171.77483 239.16778 171.33184 241.39062 170.97461 C 243.61347 170.61739 245.84912 170.34493 248.0918 170.15625 C 250.33447 169.96756 252.58432 169.8641 254.83594 169.8457 z M 110.35742 241.93359 L 143.25 241.93359 L 146.91016 244.44141 C 148.05929 245.22882 149.12108 246.17136 150.06836 247.2168 C 151.01562 248.26224 151.8467 249.40937 152.53516 250.61328 C 153.22364 251.81717 153.76986 253.07708 154.14258 254.33984 C 154.51529 255.60259 154.71484 256.86976 154.71484 258.0918 C 154.71484 259.32909 154.49175 260.64482 154.08594 261.9668 C 153.68012 263.2888 153.09189 264.61751 152.36523 265.87695 C 151.63859 267.13637 150.77308 268.32734 149.81055 269.37695 C 148.84801 270.42657 147.78924 271.33285 146.67578 272.02539 C 145.8104 272.56363 145.09382 272.97243 144.03125 273.28516 C 142.96867 273.59789 141.55832 273.81507 139.31055 273.9707 C 134.81499 274.28194 126.96147 274.34821 111.79688 274.44141 C 103.18807 274.49434 95.069249 274.45133 88.921875 274.33789 C 82.774482 274.22445 78.599112 274.0395 77.880859 273.81445 C 77.02441 273.54611 76.195781 273.20656 75.398438 272.80273 C 74.601104 272.3989 73.833889 271.93159 73.109375 271.41016 C 71.660326 270.36731 70.370535 269.10697 69.294922 267.70117 C 68.21932 266.29537 67.360158 264.74468 66.767578 263.11914 C 66.471273 262.30637 66.240937 261.47366 66.085938 260.63281 C 65.930944 259.79196 65.849609 258.94283 65.849609 258.0918 C 65.849609 256.85453 66.074658 255.53682 66.480469 254.21484 C 66.88628 252.89286 67.474508 251.56606 68.201172 250.30664 C 68.927827 249.04722 69.793318 247.85431 70.755859 246.80469 C 71.718391 245.75508 72.777174 244.84879 73.890625 244.15625 C 74.763312 243.61347 75.469402 243.20269 76.541016 242.89258 C 77.61264 242.58247 79.051272 242.37451 81.382812 242.23242 C 86.045905 241.9482 94.288763 241.93359 110.35742 241.93359 z M 401.11328 242.94336 L 401.11523 242.94336 C 417.14405 242.94336 425.37143 242.958 430.02539 243.24219 C 432.35242 243.38429 433.7868 243.59225 434.85742 243.90234 C 435.92805 244.21243 436.63522 244.62331 437.50781 245.16602 C 438.42616 245.7372 439.27432 246.39341 440.04492 247.11719 C 440.81563 247.84097 441.50938 248.63357 442.12305 249.47656 C 442.73683 250.31955 443.26924 251.21184 443.7168 252.14062 C 444.16426 253.06943 444.52473 254.03247 444.79688 255.01367 C 445.06891 255.99488 445.25194 256.99393 445.33984 257.99414 C 445.42797 258.99434 445.41914 259.99662 445.3125 260.98242 C 445.20597 261.96823 445.00123 262.93896 444.69141 263.87695 C 444.3816 264.81496 443.96769 265.72132 443.44531 266.57812 C 442.69874 267.80275 441.96275 268.8458 441.19336 269.74219 C 440.42397 270.63859 439.61953 271.38805 438.73633 272.02148 C 437.85313 272.65492 436.89289 273.17163 435.80469 273.60742 C 434.7166 274.04321 433.50127 274.39774 432.11719 274.70117 C 430.78209 274.99387 426.58255 275.22054 420.94336 275.37695 C 415.30416 275.53335 408.22665 275.61851 401.13086 275.63281 C 394.03509 275.64716 386.91986 275.58854 381.21484 275.45508 C 375.50977 275.32163 371.21299 275.11321 369.74609 274.82617 C 368.57956 274.59791 367.47414 274.25345 366.42969 273.79102 C 365.38524 273.32859 364.40213 272.74781 363.48438 272.05469 C 362.56662 271.36156 361.71225 270.55511 360.92578 269.63477 C 360.1393 268.71443 359.42206 267.6812 358.77148 266.53711 C 358.26035 265.63826 357.85203 264.70371 357.54492 263.74609 C 357.23781 262.78846 357.03076 261.80788 356.91992 260.82031 C 356.80902 259.83275 356.79535 258.83831 356.87305 257.84961 C 356.95073 256.86092 357.12045 255.87898 357.37891 254.91797 C 357.63736 253.95698 357.98455 253.01582 358.41602 252.11133 C 358.84749 251.20684 359.36224 250.33869 359.95898 249.51953 C 360.55571 248.70036 361.23403 247.93158 361.98828 247.22656 C 362.74254 246.52155 363.57254 245.88041 364.47656 245.31836 C 365.42753 244.72716 366.15025 244.28262 367.20898 243.94922 C 368.26771 243.61582 369.66245 243.39307 371.96094 243.24414 C 376.55768 242.94637 384.767 242.94336 401.11328 242.94336 z M 339.72266 321.69922 C 340.15024 321.68472 340.57445 321.69753 341 321.74023 L 341 321.73828 C 341.85107 321.82371 342.71052 322.03191 343.62891 322.39453 C 344.5473 322.75716 345.52539 323.27557 346.61133 323.98047 C 347.69725 324.68536 348.89045 325.57721 350.24414 326.68945 C 351.59783 327.80168 353.11233 329.13411 354.83398 330.71875 C 358.27732 333.88801 362.55571 338.06843 368.07227 343.51758 C 374.44048 349.80795 379.26504 354.58396 382.92773 358.32617 C 386.59044 362.06841 389.09195 364.77546 390.8125 366.92188 C 391.67287 367.99509 392.33752 368.92841 392.85547 369.78125 C 393.37341 370.63408 393.74469 371.40475 394.01562 372.15625 C 394.28656 372.90774 394.45671 373.64096 394.57617 374.41016 C 394.69564 375.17935 394.76277 375.98663 394.82617 376.89258 C 394.98996 379.23596 394.98917 380.79849 394.70117 382.13281 C 394.55707 382.79998 394.34049 383.41227 394.03906 384.0332 C 393.73752 384.65412 393.34999 385.28404 392.86133 385.99609 C 392.21201 386.9425 391.32247 388.02482 390.41211 389.00586 C 389.50164 389.98692 388.56992 390.86616 387.83789 391.4082 C 386.87188 392.12358 385.72824 392.6863 384.47656 393.08789 C 383.22477 393.48947 381.86536 393.73115 380.47461 393.81055 C 379.08388 393.88992 377.6604 393.80605 376.27734 393.55469 C 374.89431 393.30355 373.55094 392.88498 372.32227 392.29492 C 371.70596 391.99895 370.51939 391.09224 368.91211 389.72461 C 367.30482 388.35699 365.27664 386.52767 362.97656 384.38672 C 358.37641 380.10486 352.68961 374.57725 347.10742 368.99219 C 341.52523 363.40712 336.04788 357.76522 331.86914 353.26367 C 329.77978 351.01291 328.01582 349.048 326.72461 347.51562 C 325.43339 345.98326 324.61479 344.88478 324.41992 344.36914 C 323.96394 343.16268 323.64117 341.95727 323.44531 340.76562 C 323.24953 339.57397 323.17987 338.39406 323.23047 337.24414 C 323.28106 336.09421 323.45308 334.97386 323.73633 333.89258 C 324.01958 332.8113 324.41575 331.77086 324.91797 330.78516 C 325.4202 329.79945 326.02885 328.8671 326.73633 328.00391 C 327.4438 327.14071 328.24943 326.34463 329.14844 325.63086 C 330.04746 324.91709 331.04035 324.28548 332.11719 323.74805 C 333.19401 323.21063 334.35477 322.7697 335.5957 322.43555 C 336.61282 322.16167 337.53789 321.94318 338.42188 321.81641 C 338.86386 321.75297 339.29508 321.71372 339.72266 321.69922 z M 173.26562 325.13086 C 174.41555 325.18142 175.53591 325.35152 176.61719 325.63477 C 177.69846 325.91802 178.74086 326.31419 179.72656 326.81641 C 180.71225 327.31864 181.64266 327.9273 182.50586 328.63477 C 183.36907 329.34224 184.16514 330.14787 184.87891 331.04688 C 185.59269 331.94589 186.22429 332.93683 186.76172 334.01367 C 187.29914 335.09049 187.74007 336.25516 188.07422 337.49609 C 188.34903 338.51667 188.57001 339.44403 188.69727 340.33008 C 188.82447 341.21615 188.85908 342.06137 188.77148 342.91602 C 188.68379 343.77065 188.47355 344.6342 188.10352 345.56055 C 187.7335 346.4869 187.20413 347.47503 186.48438 348.57617 C 185.76462 349.67732 184.85369 350.89047 183.7168 352.26953 C 182.57992 353.64859 181.21712 355.19305 179.5957 356.95312 C 176.35289 360.47326 172.07356 364.85863 166.48828 370.52148 C 160.89036 376.19716 155.29623 381.6824 150.79297 385.94727 C 146.28971 390.21211 142.87719 393.25759 141.64258 394.05273 C 139.99265 395.11538 138.55886 395.83771 137.10547 396.29492 C 135.65208 396.75212 134.17926 396.94336 132.45117 396.94336 C 130.99497 396.94336 129.59604 396.74563 128.27539 396.38086 C 126.95474 396.01609 125.71273 395.48328 124.56445 394.8125 C 123.41617 394.14171 122.36291 393.33209 121.42383 392.41406 C 120.48472 391.49602 119.65992 390.4698 118.9668 389.36328 C 118.27368 388.25675 117.71305 387.07219 117.30273 385.83594 C 116.89241 384.59969 116.63172 383.31308 116.54102 382.00586 C 116.4503 380.69865 116.52924 379.37018 116.79492 378.05078 C 117.06061 376.73137 117.51297 375.41933 118.17188 374.14648 C 118.49226 373.52757 119.42192 372.33958 120.81055 370.73047 C 122.1992 369.12135 124.04758 367.09381 126.20508 364.79297 C 130.52008 360.19128 136.07183 354.50338 141.66602 348.92578 C 147.26022 343.34818 152.8947 337.88043 157.37305 333.71484 C 159.61222 331.63205 161.56503 329.87387 163.07617 328.5918 C 164.58731 327.30975 165.65884 326.50314 166.14258 326.32031 C 167.34903 325.86434 168.55444 325.54156 169.74609 325.3457 C 170.93774 325.14992 172.1157 325.08026 173.26562 325.13086 z M 255.65234 355.98242 C 256.16005 355.96752 256.67035 355.97587 257.17773 356.00977 C 258.19248 356.07783 259.20214 356.24132 260.19141 356.5 C 261.18069 356.75868 262.1503 357.11323 263.08398 357.55469 C 264.01767 357.99616 264.91568 358.5262 265.76367 359.14258 C 266.61165 359.75899 267.41038 360.46069 268.14258 361.24414 C 268.87477 362.02759 269.54262 362.89331 270.12891 363.83594 C 270.67162 364.70852 271.08054 365.41375 271.39062 366.48438 C 271.70072 367.55499 271.91064 368.98932 272.05273 371.31641 C 272.33698 375.97056 272.34961 384.19604 272.34961 400.22656 C 272.34961 416.57449 272.34659 424.78388 272.04883 429.38086 C 271.89989 431.67935 271.67911 433.07408 271.3457 434.13281 C 271.01229 435.19155 270.5678 435.91427 269.97656 436.86523 C 269.32374 437.91526 268.29096 439.09209 267.1543 440.14453 C 266.01764 441.19697 264.77684 442.12511 263.70508 442.67188 C 262.77074 443.14853 261.81632 443.53077 260.85547 443.82031 C 259.89464 444.10985 258.92687 444.30655 257.95898 444.41406 C 256.99111 444.52156 256.02384 444.5402 255.06836 444.4707 C 254.11288 444.40122 253.16775 444.24523 252.24414 444.00391 C 251.32053 443.76259 250.41915 443.43544 249.54688 443.02734 C 248.67459 442.61925 247.83277 442.1284 247.03125 441.55859 C 246.22974 440.98878 245.46909 440.33972 244.75781 439.61328 C 244.04653 438.88687 243.38477 438.08499 242.7832 437.20703 C 242.23119 436.40144 241.8156 435.75931 241.50195 434.73242 C 241.18831 433.70554 240.97788 432.29075 240.83594 429.93945 C 240.55198 425.23687 240.54388 416.78304 240.54688 400.16406 C 240.54889 390.67091 240.54276 383.59754 240.6543 378.25 C 240.71025 375.57621 240.79447 373.33372 240.92578 371.4375 C 241.05709 369.54127 241.23608 367.99047 241.47461 366.69922 C 241.71315 365.40797 242.01105 364.37445 242.38867 363.51562 C 242.7663 362.65679 243.22289 361.974 243.77148 361.375 C 244.32008 360.77602 244.96143 360.26366 245.71289 359.75195 C 246.46433 359.24024 247.32633 358.72592 248.3125 358.12891 C 249.22307 357.57768 250.17303 357.13772 251.14844 356.80078 C 252.12384 356.46383 253.12464 356.23014 254.13477 356.09961 C 254.63984 356.03437 255.14462 355.99722 255.65234 355.98242 z " />
  </g>
</svg>
