<?xml version="1.0" encoding="UTF-8" standalone="no"?>
<!-- Created with Inkscape (http://www.inkscape.org/) -->

<svg
   version="1.1"
   id="svg1154"
   width="491.51999"
   height="491.51999"
   viewBox="0 0 491.51999 491.51999"
   sodipodi:docname="user.svg"
   inkscape:version="1.2.1 (9c6d41e410, 2022-07-14)"
   xmlns:inkscape="http://www.inkscape.org/namespaces/inkscape"
   xmlns:sodipodi="http://sodipodi.sourceforge.net/DTD/sodipodi-0.dtd"
   xmlns="http://www.w3.org/2000/svg"
   xmlns:svg="http://www.w3.org/2000/svg">
  <defs
     id="defs1158" />
  <sodipodi:namedview
     id="namedview1156"
     pagecolor="#ffffff"
     bordercolor="#000000"
     borderopacity="0.25"
     inkscape:showpageshadow="2"
     inkscape:pageopacity="0.0"
     inkscape:pagecheckerboard="0"
     inkscape:deskcolor="#d1d1d1"
     showgrid="false"
     inkscape:zoom="1.1926097"
     inkscape:cx="134.57881"
     inkscape:cy="234.77923"
     inkscape:window-width="1920"
     inkscape:window-height="1009"
     inkscape:window-x="-8"
     inkscape:window-y="-8"
     inkscape:window-maximized="1"
     inkscape:current-layer="g1160" />
  <g
     inkscape:groupmode="layer"
     inkscape:label="Image"
     id="g1160">
    <path
       id="path1752"
       style="fill:#ffffff;fill-opacity:0.732057;stroke:#000000;stroke-width:1.04828;stroke-opacity:0"
       d="M 247.77539 2.5390625 A 245.23631 245.23631 0 0 0 2.5390625 247.77539 A 245.23631 245.23631 0 0 0 247.77539 493.01172 A 245.23631 245.23631 0 0 0 493.01172 247.77539 A 245.23631 245.23631 0 0 0 247.77539 2.5390625 z M 249.20508 84.972656 C 259.51259 84.798652 270.09865 86.53593 280.16797 90.140625 C 301.9461 97.936945 321.58563 117.56892 329.37695 139.33203 C 339.10142 166.49496 334.78964 196.08522 317.85547 218.39453 C 303.60567 237.16744 282.61398 248.98092 259.24609 251.37891 C 252.17195 252.10487 250.09593 252.10015 242.31641 251.3418 C 208.49627 248.0451 178.77826 222.23125 170.29297 188.78125 C 158.97062 144.14729 186.10215 98.910666 231.125 87.359375 C 236.93561 85.868579 243.02057 85.077059 249.20508 84.972656 z M 188.81445 258.35352 C 192.9182 258.02044 195.10179 258.72529 198.48242 260.85938 C 207.49372 266.54794 210.37216 268.15993 215.45312 270.36914 C 238.14574 280.23593 264.11797 280.23489 286.84961 270.36523 C 291.86436 268.18772 294.4546 266.72959 303.79883 260.83203 C 307.97657 258.19526 311.85656 257.79834 319.56445 259.21484 C 347.11893 264.27866 372.51506 281.89701 388.47461 307.02148 C 391.4763 311.74691 395.10547 319.66357 395.10547 321.48633 C 395.10547 324.7398 384.12095 340.45499 374.09375 351.54688 C 346.87937 381.65086 312.35236 399.81955 272.19531 405.16797 C 265.26568 406.0909 246.62154 406.78332 240.74414 406.33594 C 209.32973 403.94481 181.70768 394.51366 157.43359 377.89258 C 139.13944 365.36606 121.36849 346.93442 110.05078 328.74805 C 106.46867 322.992 106.39106 321.39162 109.40234 315.36523 C 115.02195 304.11904 120.97278 295.92854 130.08594 286.89648 C 144.54781 272.56334 164.18881 262.39774 183.95508 259.01758 C 185.86523 258.69093 187.44654 258.46454 188.81445 258.35352 z " />
  </g>
</svg>
